<?xml version="1.0" encoding="UTF-8" ?>
<!DOCTYPE svg PUBLIC "-//W3C//DTD SVG 1.1//EN" "http://www.w3.org/Graphics/SVG/1.1/DTD/svg11.dtd">
<svg width="2049pt" height="488pt" viewBox="0 0 2049 488" version="1.1" xmlns="http://www.w3.org/2000/svg">
<path fill="#fcfcfd" d=" M 0.00 0.00 L 2049.00 0.00 L 2049.00 488.00 L 0.00 488.00 L 0.00 0.00 Z" />
<path fill="#4ed9fd" d=" M 256.40 89.52 C 259.27 89.05 262.75 88.79 264.99 91.04 C 267.95 93.41 268.81 97.40 268.72 101.01 C 268.65 127.02 268.73 153.03 268.68 179.04 C 268.72 182.78 266.70 186.49 263.41 188.32 C 258.24 191.79 249.92 187.34 250.21 181.05 C 250.19 153.36 250.21 125.67 250.20 97.98 C 250.03 94.16 252.71 90.51 256.40 89.52 Z" />
<path fill="#4ed9fd" d=" M 215.77 144.71 C 219.22 143.01 223.49 144.21 225.87 147.13 C 229.07 150.18 229.15 155.98 226.00 159.09 C 224.59 160.83 222.54 161.80 220.53 162.67 C 202.98 170.23 187.45 182.88 177.38 199.19 C 170.12 199.21 162.86 199.32 155.61 199.61 C 161.73 187.98 169.61 177.23 179.10 168.14 C 189.90 158.38 202.10 149.88 215.77 144.71 Z" />
<path fill="#4ed9fd" d=" M 290.64 156.32 C 287.60 149.57 295.64 141.41 302.40 144.53 C 328.13 154.93 350.22 174.67 362.59 199.60 C 355.35 199.31 348.11 199.22 340.87 199.18 C 332.04 184.35 318.25 172.92 303.06 164.99 C 298.66 162.63 292.50 161.64 290.64 156.32 Z" />
<path fill="#4ed9fd" d=" M 814.09 166.14 C 817.98 164.17 822.64 166.70 824.91 170.01 C 827.22 173.90 826.66 178.62 826.72 182.95 C 826.74 202.01 826.60 221.06 826.79 240.12 C 829.45 236.71 831.90 233.13 834.84 229.95 C 843.92 220.75 857.01 215.62 869.93 216.26 C 882.14 215.74 894.84 219.73 903.57 228.50 C 912.18 236.57 916.48 248.37 917.48 259.93 C 917.54 285.62 917.48 311.31 917.52 337.00 C 917.84 340.11 915.40 342.44 913.20 344.22 C 907.66 348.24 898.87 342.61 899.69 336.01 C 899.79 314.70 899.69 293.38 899.75 272.07 C 899.47 261.25 897.16 249.65 889.28 241.68 C 877.42 230.63 858.38 229.84 844.59 237.69 C 833.85 244.23 826.86 256.39 826.69 268.99 C 826.73 290.33 826.69 311.68 826.71 333.02 C 826.68 337.28 825.84 342.67 821.42 344.53 C 817.24 346.82 811.61 344.80 809.33 340.77 C 807.64 337.78 808.31 334.22 808.19 330.96 C 808.23 278.98 808.22 226.99 808.20 175.01 C 808.04 171.24 810.45 167.36 814.09 166.14 Z" />
<path fill="#7c10f0" d=" M 1582.86 175.96 C 1582.45 170.71 1586.43 165.22 1592.00 165.34 C 1597.30 164.90 1602.12 169.73 1601.75 175.02 C 1601.76 228.69 1601.77 282.36 1601.75 336.03 C 1602.26 342.49 1595.07 347.58 1589.11 345.11 C 1585.00 343.65 1582.70 339.30 1582.86 335.08 C 1582.74 329.89 1582.89 324.69 1582.81 319.50 C 1576.52 328.52 1568.64 336.79 1558.67 341.70 C 1542.10 349.98 1521.56 348.53 1505.67 339.36 C 1491.29 331.30 1480.94 316.94 1476.95 301.04 C 1472.72 283.81 1473.90 264.88 1481.94 248.91 C 1489.73 233.17 1504.71 221.11 1521.90 217.25 C 1537.23 213.48 1554.22 216.56 1567.04 225.86 C 1573.21 230.30 1578.38 236.00 1582.80 242.16 C 1582.89 220.09 1582.78 198.03 1582.86 175.96 Z" />
<path fill="#7c10f0" d=" M 1176.47 169.74 C 1180.87 168.37 1186.37 168.83 1189.65 172.40 C 1192.83 175.69 1192.62 180.84 1191.76 185.00 C 1189.92 191.21 1182.05 193.71 1176.40 191.35 C 1167.45 188.15 1167.42 172.82 1176.47 169.74 Z" />
<path fill="#4ed9fd" d=" M 441.08 183.00 C 442.23 178.87 444.99 174.00 449.93 174.24 C 489.29 174.16 528.66 174.27 568.02 174.18 C 572.52 173.80 577.00 177.33 577.28 181.92 C 578.16 186.66 573.87 191.68 569.01 191.27 C 552.33 191.22 535.65 191.27 518.97 191.23 C 518.79 239.49 518.93 287.75 518.90 336.01 C 519.00 339.78 516.58 343.63 512.92 344.81 C 507.18 347.42 499.55 342.17 500.27 335.79 C 500.13 292.88 500.26 249.97 500.21 207.06 C 500.15 201.80 500.46 196.52 499.89 191.28 C 483.28 191.21 466.67 191.25 450.06 191.26 C 445.33 191.53 442.02 187.22 441.08 183.00 Z" />
<path fill="#7c10f0" d=" M 945.58 183.94 C 945.29 178.32 950.41 173.39 956.01 173.74 C 990.36 173.73 1024.72 173.76 1059.07 173.73 C 1062.96 173.45 1067.07 175.35 1068.67 179.06 C 1071.33 184.34 1067.12 191.62 1061.11 191.61 C 1029.02 191.77 996.93 191.58 964.84 191.70 C 964.93 211.98 964.54 232.27 965.04 252.54 C 993.35 252.53 1021.67 252.47 1049.98 252.57 C 1056.55 252.40 1060.94 260.78 1057.06 266.10 C 1054.81 269.95 1050.01 270.50 1045.99 270.24 C 1018.95 270.19 991.92 270.20 964.89 270.24 C 964.71 292.16 964.89 314.08 964.80 336.00 C 965.09 341.25 960.21 345.97 954.99 345.65 C 949.56 345.70 945.09 340.34 945.56 335.04 C 945.59 284.68 945.56 234.31 945.58 183.94 Z" />
<path fill="#7c10f0" d=" M 128.91 201.60 C 137.79 200.73 146.70 200.09 155.61 199.61 C 162.86 199.32 170.12 199.21 177.38 199.19 C 199.26 198.99 221.21 199.59 242.89 202.75 C 247.00 203.38 251.15 203.77 255.30 204.15 C 266.31 205.01 277.10 202.02 288.02 201.24 C 305.57 199.32 323.23 199.08 340.87 199.18 C 348.11 199.22 355.35 199.31 362.59 199.60 C 372.54 200.14 382.48 200.84 392.39 201.91 C 397.89 202.70 403.59 203.17 408.67 205.63 C 408.46 209.80 408.90 214.22 407.14 218.12 C 405.18 221.87 399.81 221.18 397.50 224.57 C 395.83 226.97 395.55 230.00 395.21 232.83 C 394.01 244.90 393.32 257.32 388.63 268.67 C 385.07 277.42 377.90 284.34 369.59 288.63 C 363.00 291.95 355.60 292.90 348.32 293.16 C 336.11 293.42 323.86 293.32 311.71 292.03 C 300.93 290.96 290.34 286.12 283.59 277.46 C 274.55 265.76 270.49 250.82 270.07 236.18 C 269.74 232.42 270.31 227.62 266.61 225.31 C 260.62 220.98 248.44 223.05 248.56 231.93 C 248.40 247.56 244.99 263.71 235.57 276.49 C 229.31 284.99 219.39 290.32 208.99 291.67 C 196.14 293.42 183.12 293.38 170.18 293.15 C 162.89 292.89 155.45 291.98 148.86 288.63 C 141.33 284.76 134.67 278.86 130.93 271.16 C 126.04 261.35 124.99 250.25 123.78 239.51 C 123.24 234.80 123.44 229.83 121.43 225.43 C 119.40 221.17 113.13 222.08 111.13 217.85 C 109.61 214.01 109.84 209.79 109.63 205.74 C 115.59 202.76 122.41 202.45 128.91 201.60 Z" />
<path fill="#4ed9fd" d=" M 147.88 218.39 C 154.77 217.17 161.64 215.70 168.65 215.36 C 160.42 235.32 159.62 257.81 164.74 278.66 C 155.75 277.66 146.60 272.36 143.15 263.71 C 143.15 258.12 143.16 252.54 143.17 246.96 C 143.29 237.25 145.58 227.77 147.88 218.39 Z" />
<path fill="#fcfcfd" d=" M 168.65 215.36 C 178.08 215.29 187.50 214.66 196.93 215.15 C 207.86 215.23 219.28 215.72 229.19 220.85 C 232.29 222.31 234.62 225.42 234.50 228.93 C 234.57 242.78 232.32 257.44 223.71 268.72 C 219.31 274.43 212.25 277.30 205.23 277.90 C 191.79 279.30 178.22 279.55 164.74 278.66 C 159.62 257.81 160.42 235.32 168.65 215.36 Z" />
<path fill="#fcfcfd" d=" M 287.75 221.74 C 295.90 216.82 305.67 215.59 315.02 215.29 C 326.66 214.98 338.32 215.02 349.97 215.42 C 357.53 235.50 359.53 257.90 353.39 278.63 L 353.37 278.70 C 342.26 279.47 331.11 279.22 319.99 278.56 C 313.01 277.96 305.46 277.57 299.58 273.29 C 293.37 268.95 290.01 261.83 287.50 254.91 C 284.59 246.90 284.23 238.30 283.84 229.88 C 283.79 226.77 284.89 223.35 287.75 221.74 Z" />
<path fill="#7c10f0" d=" M 1242.95 222.97 C 1261.33 212.69 1285.42 213.27 1303.03 224.95 C 1320.94 236.87 1330.10 258.99 1329.62 280.07 C 1329.69 284.61 1325.48 288.51 1321.00 288.41 C 1290.68 288.50 1260.36 288.42 1230.04 288.44 C 1230.81 301.77 1237.29 314.91 1248.18 322.82 C 1261.04 332.25 1278.81 333.06 1293.39 327.39 C 1299.99 324.84 1305.69 320.55 1311.02 315.97 C 1315.42 312.03 1323.20 315.14 1324.02 320.91 C 1325.05 326.19 1319.95 329.46 1316.55 332.49 C 1302.26 344.86 1282.34 349.41 1263.86 346.64 C 1247.19 344.29 1231.63 334.72 1222.22 320.72 C 1210.70 303.77 1208.01 281.66 1213.29 262.04 C 1217.58 245.84 1228.16 231.12 1242.95 222.97 Z" />
<path fill="#7c10f0" d=" M 1377.60 226.60 C 1392.94 213.66 1416.13 212.52 1433.74 221.33 C 1441.82 225.52 1448.34 232.51 1452.18 240.74 C 1456.09 248.88 1457.53 258.02 1457.50 266.99 C 1457.47 289.99 1457.53 312.99 1457.47 335.99 C 1457.70 341.10 1453.23 346.04 1448.00 345.64 C 1442.88 345.83 1438.40 341.07 1438.61 336.01 C 1438.55 313.35 1438.68 290.68 1438.56 268.01 C 1438.32 256.18 1433.27 243.58 1422.62 237.48 C 1410.03 230.57 1393.43 231.39 1381.66 239.66 C 1371.69 246.67 1366.21 258.90 1366.23 270.93 C 1366.21 292.29 1366.22 313.65 1366.23 335.00 C 1366.27 337.97 1365.47 341.14 1363.21 343.19 C 1359.35 347.02 1352.18 346.32 1349.11 341.86 C 1347.33 339.64 1347.30 336.69 1347.31 334.00 C 1347.37 298.31 1347.28 262.62 1347.35 226.94 C 1347.08 222.11 1351.08 217.43 1355.99 217.28 C 1360.76 216.71 1365.37 220.50 1366.02 225.21 C 1366.51 229.68 1366.02 234.19 1366.33 238.68 C 1370.34 234.89 1373.17 229.99 1377.60 226.60 Z" />
<path fill="#4ed9fd" d=" M 349.97 215.42 C 356.82 215.68 363.54 217.15 370.28 218.34 C 374.98 233.13 376.27 248.88 375.00 264.31 C 371.23 272.59 362.32 277.89 353.39 278.63 C 359.53 257.90 357.53 235.50 349.97 215.42 Z" />
<path fill="#4ed9fd" d=" M 574.57 226.67 C 584.50 219.61 596.78 215.62 609.00 216.26 C 625.62 215.63 642.05 223.72 652.28 236.73 C 660.06 246.86 664.85 259.29 665.93 272.03 C 666.23 275.63 667.26 279.44 665.73 282.91 C 664.77 286.13 661.27 287.92 658.09 287.91 C 627.65 287.93 597.22 287.90 566.78 287.92 C 566.95 298.98 571.67 309.76 578.98 317.97 C 587.06 326.28 598.48 330.95 610.00 331.46 C 622.87 331.58 635.79 327.00 645.41 318.39 C 647.63 316.65 649.83 314.11 652.93 314.40 C 658.57 314.23 663.20 321.77 659.35 326.42 C 647.06 340.27 628.35 347.68 609.94 347.14 C 594.35 347.13 579.07 340.93 567.61 330.43 C 557.99 320.91 551.40 308.42 549.12 295.06 C 547.35 283.13 547.61 270.70 551.41 259.17 C 555.50 246.29 563.45 234.47 574.57 226.67 Z" />
<path fill="#4ed9fd" d=" M 732.49 216.56 C 741.99 215.87 751.74 215.89 760.91 218.86 C 770.98 221.63 779.82 227.64 787.49 234.59 C 791.31 238.22 790.49 245.19 786.01 247.96 C 782.50 250.79 777.44 249.48 774.49 246.49 C 766.25 238.92 755.91 232.96 744.54 232.24 C 731.68 231.04 718.33 235.99 709.42 245.38 C 700.08 254.72 695.71 268.03 695.28 281.03 C 695.48 296.57 701.97 312.78 715.01 321.90 C 724.55 329.37 737.33 332.05 749.19 330.26 C 760.23 328.60 769.82 322.33 777.92 314.94 C 781.48 310.94 788.21 313.63 789.99 318.08 C 790.95 320.61 791.08 323.93 789.00 325.96 C 781.34 334.48 771.41 341.14 760.38 344.39 C 743.05 349.58 723.51 347.40 707.99 338.02 C 688.33 326.43 676.21 303.65 676.75 280.94 C 676.72 264.55 683.34 248.48 694.25 236.35 C 704.26 225.69 717.94 218.44 732.49 216.56 Z" />
<path fill="#7c10f0" d=" M 1086.68 227.93 C 1086.34 223.29 1089.41 218.42 1094.08 217.44 C 1099.13 216.23 1104.82 219.77 1105.43 225.05 C 1105.92 233.10 1105.33 241.20 1105.71 249.27 C 1112.58 235.98 1123.16 223.69 1137.67 218.71 C 1142.47 217.28 1147.77 215.74 1152.70 217.44 C 1158.59 219.74 1160.04 228.30 1155.79 232.77 C 1153.39 235.69 1149.35 235.78 1145.95 236.46 C 1132.67 238.78 1120.56 247.06 1113.84 258.79 C 1107.09 270.28 1105.31 283.93 1105.60 297.06 C 1105.58 310.05 1105.64 323.04 1105.58 336.02 C 1105.78 340.82 1101.87 345.60 1096.93 345.63 C 1091.50 346.26 1086.53 341.35 1086.72 335.98 C 1086.64 299.96 1086.72 263.94 1086.68 227.93 Z" />
<path fill="#7c10f0" d=" M 1178.37 217.58 C 1182.15 216.55 1186.57 217.86 1188.80 221.18 C 1190.84 224.03 1190.48 227.68 1190.52 230.99 C 1190.45 266.00 1190.54 301.02 1190.48 336.03 C 1190.80 341.19 1186.24 346.12 1180.98 345.64 C 1175.89 345.82 1171.46 341.08 1171.66 336.06 C 1171.61 299.72 1171.63 263.37 1171.66 227.02 C 1171.53 222.85 1174.36 218.78 1178.37 217.58 Z" />
<path fill="#7c10f0" d=" M 1670.45 227.01 C 1670.11 222.17 1673.97 217.38 1678.94 217.29 C 1684.39 216.58 1689.51 221.56 1689.30 226.99 C 1689.37 249.00 1689.29 271.01 1689.34 293.02 C 1689.31 301.41 1691.27 310.04 1696.14 316.99 C 1700.55 323.28 1707.50 327.64 1715.03 329.08 C 1724.70 330.97 1735.25 329.95 1743.78 324.77 C 1752.42 319.75 1758.43 310.84 1760.59 301.16 C 1762.23 294.54 1761.67 287.69 1761.77 280.94 C 1761.76 263.29 1761.79 245.64 1761.75 227.98 C 1761.68 225.20 1762.23 222.24 1764.23 220.17 C 1767.93 215.82 1775.78 216.39 1778.74 221.32 C 1780.90 224.43 1780.30 228.38 1780.38 231.95 C 1780.34 266.62 1780.39 301.28 1780.36 335.95 C 1780.60 340.98 1776.25 345.94 1771.08 345.64 C 1766.36 345.86 1762.09 341.71 1761.86 337.06 C 1761.59 332.33 1761.85 327.59 1761.73 322.85 C 1757.89 328.49 1753.62 333.98 1748.04 337.99 C 1737.59 345.97 1723.75 348.37 1710.93 346.64 C 1701.13 345.53 1691.49 341.49 1684.45 334.48 C 1677.72 327.95 1673.54 319.13 1671.74 310.01 C 1669.85 301.45 1670.57 292.64 1670.44 283.96 C 1670.45 264.97 1670.41 245.99 1670.45 227.01 Z" />
<path fill="#7c10f0" d=" M 1836.91 216.82 C 1849.81 215.08 1862.98 217.46 1875.06 222.08 C 1879.87 224.25 1885.55 225.67 1888.92 230.01 C 1892.34 234.48 1889.40 241.66 1883.94 242.65 C 1880.12 243.58 1876.76 241.27 1873.55 239.63 C 1862.95 234.27 1850.90 231.02 1838.98 232.61 C 1832.99 233.54 1826.91 236.29 1823.42 241.42 C 1820.02 246.40 1819.43 253.73 1823.42 258.56 C 1827.60 263.61 1833.94 266.05 1839.91 268.28 C 1853.61 273.23 1868.48 275.84 1880.65 284.29 C 1886.32 288.28 1890.99 294.03 1892.59 300.88 C 1894.94 311.23 1892.89 322.74 1886.26 331.16 C 1879.26 340.15 1868.04 344.97 1856.95 346.36 C 1837.39 348.61 1817.43 342.68 1801.21 331.81 C 1797.65 329.72 1795.37 324.90 1797.41 321.03 C 1799.40 316.23 1806.00 314.66 1810.06 317.81 C 1823.64 327.11 1840.38 332.81 1856.95 330.33 C 1863.82 329.07 1870.78 325.37 1873.94 318.86 C 1876.48 313.40 1876.49 306.24 1872.40 301.52 C 1868.53 296.99 1862.84 294.62 1857.42 292.52 C 1844.87 288.01 1831.42 285.80 1819.61 279.36 C 1812.84 275.75 1806.67 270.17 1804.18 262.72 C 1799.91 250.04 1804.00 234.90 1814.44 226.41 C 1820.73 221.02 1828.78 218.03 1836.91 216.82 Z" />
<path fill="#fcfcfd" d=" M 137.42 225.18 C 139.15 221.00 143.92 219.61 147.88 218.39 C 145.58 227.77 143.29 237.25 143.17 246.96 C 143.16 252.54 143.15 258.12 143.15 263.71 C 139.16 255.04 138.75 245.33 137.62 236.00 C 137.49 232.41 136.59 228.73 137.42 225.18 Z" />
<path fill="#fcfcfd" d=" M 370.28 218.34 C 373.70 219.37 377.38 220.44 379.86 223.18 C 382.26 225.94 381.24 229.78 381.04 233.07 C 379.84 243.58 379.53 254.56 375.00 264.31 C 376.27 248.88 374.98 233.13 370.28 218.34 Z" />
<path fill="#fcfcfd" d=" M 248.56 231.93 C 248.44 223.05 260.62 220.98 266.61 225.31 C 270.31 227.62 269.74 232.42 270.07 236.18 C 270.49 250.82 274.55 265.76 283.59 277.46 C 290.34 286.12 300.93 290.96 311.71 292.03 C 323.86 293.32 336.11 293.42 348.32 293.16 C 340.76 308.72 329.68 322.73 315.34 332.56 C 300.82 342.53 283.67 349.11 265.97 349.87 C 258.33 349.79 250.62 350.36 243.06 348.95 C 222.47 345.54 203.23 335.24 188.65 320.37 C 181.19 312.27 174.88 303.12 170.18 293.15 C 183.12 293.38 196.14 293.42 208.99 291.67 C 219.39 290.32 229.31 284.99 235.57 276.49 C 244.99 263.71 248.40 247.56 248.56 231.93 Z" />
<path fill="#fcfcfd" d=" M 580.69 242.70 C 589.46 233.64 602.95 229.42 615.31 232.05 C 625.39 233.52 633.95 240.13 639.67 248.32 C 644.84 256.10 647.24 265.40 648.07 274.62 C 620.87 274.62 593.67 274.51 566.47 274.68 C 567.53 262.88 572.15 251.09 580.69 242.70 Z" />
<path fill="#fcfcfd" d=" M 1248.78 238.76 C 1262.67 228.45 1283.91 229.37 1296.49 241.39 C 1305.55 249.89 1309.80 262.34 1310.89 274.47 C 1283.93 274.48 1256.98 274.48 1230.03 274.47 C 1230.96 260.71 1237.53 247.00 1248.78 238.76 Z" />
<path fill="#fcfcfd" d=" M 1532.63 232.93 C 1547.87 230.91 1563.70 237.81 1573.13 249.84 C 1587.34 267.62 1587.24 295.23 1573.06 312.99 C 1562.80 326.12 1544.90 333.21 1528.53 329.15 C 1512.29 325.67 1499.43 311.92 1495.68 295.93 C 1491.69 279.25 1494.09 259.95 1505.74 246.74 C 1512.55 238.96 1522.40 234.15 1532.63 232.93 Z" />
<path fill="#7c10f0" d=" M 206.26 241.22 C 212.66 238.32 220.31 245.32 218.13 251.96 C 216.73 258.21 208.18 260.85 203.51 256.45 C 198.38 252.41 199.97 243.18 206.26 241.22 Z" />
<path fill="#7c10f0" d=" M 307.05 240.78 C 312.53 239.41 318.51 244.31 317.90 250.01 C 318.15 257.05 308.63 261.42 303.42 256.67 C 297.57 252.47 299.88 242.03 307.05 240.78 Z" />
<path fill="#4ed9fd" d=" M 148.86 288.63 C 155.45 291.98 162.89 292.89 170.18 293.15 C 174.88 303.12 181.19 312.27 188.65 320.37 C 203.23 335.24 222.47 345.54 243.06 348.95 C 250.62 350.36 258.33 349.79 265.97 349.87 C 283.67 349.11 300.82 342.53 315.34 332.56 C 329.68 322.73 340.76 308.72 348.32 293.16 C 355.60 292.90 363.00 291.95 369.59 288.63 C 367.80 295.56 364.38 301.88 361.15 308.22 C 342.01 343.99 302.72 368.40 262.00 368.45 C 224.47 370.20 186.99 351.30 165.21 320.83 C 158.10 311.07 152.28 300.25 148.86 288.63 Z" />
<path fill="#7c10f0" d=" M 212.25 304.41 C 215.75 302.95 218.43 306.15 221.06 307.87 C 243.32 323.73 275.40 323.64 297.59 307.69 C 299.92 306.26 302.01 303.50 305.07 304.14 C 308.66 304.49 309.72 309.80 306.72 311.72 C 296.79 319.91 284.59 325.26 271.93 327.43 C 250.96 331.15 228.54 325.35 211.97 312.01 C 209.36 310.37 209.39 305.72 212.25 304.41 Z" />
<path fill="#7c10f0" d=" M 1633.25 318.18 C 1637.99 316.54 1643.81 318.13 1646.67 322.36 C 1649.30 326.05 1648.71 330.85 1648.59 335.12 C 1648.38 340.99 1642.94 346.03 1637.05 345.65 C 1631.54 345.89 1626.36 341.45 1625.67 336.01 C 1625.31 333.00 1625.31 329.95 1625.68 326.96 C 1626.23 322.89 1629.38 319.41 1633.25 318.18 Z" />
</svg>
