<?xml version="1.0" encoding="UTF-8"?>
<!DOCTYPE svg PUBLIC "-//W3C//DTD SVG 1.1//EN" "http://www.w3.org/Graphics/SVG/1.1/DTD/svg11.dtd">
<!-- Creator: CorelDRAW X7 -->
<svg xmlns="http://www.w3.org/2000/svg" xml:space="preserve" width="11.6929in" height="8.26772in" version="1.1" style="shape-rendering:geometricPrecision; text-rendering:geometricPrecision; image-rendering:optimizeQuality; fill-rule:evenodd; clip-rule:evenodd"
viewBox="0 0 11693 8268"
 xmlns:xlink="http://www.w3.org/1999/xlink">
 <defs>
  <style type="text/css">
   <![CDATA[
    .fil0 {fill:#29ABE2}
    .fil3 {fill:#93278F}
    .fil4 {fill:#93278F;fill-rule:nonzero}
    .fil2 {fill:#93278F;fill-rule:nonzero}
    .fil1 {fill:white;fill-rule:nonzero}
   ]]>
  </style>
 </defs>
 <g id="Layer_x0020_1">
  <metadata id="CorelCorpID_0Corel-Layer"/>
  <rect class="fil0" transform="matrix(2.64845E-014 -1 1 2.64845E-014 -1.0823E-010 8267.72)" width="8268" height="11693"/>
  <path class="fil1" d="M2659 3832c-22,-9 -33,-34 -24,-56 9,-22 34,-32 56,-23 98,39 181,107 239,194 57,84 90,185 90,293 0,146 -59,277 -154,372 -96,96 -227,154 -372,154 -146,0 -277,-58 -372,-154 -95,-95 -154,-226 -154,-372 0,-108 33,-209 89,-293 58,-87 142,-155 240,-194 22,-9 47,1 55,23 9,22 -2,47 -23,56 -82,33 -152,90 -201,163 -47,70 -75,154 -75,245 0,122 50,232 129,312 80,80 190,129 312,129 121,0 231,-49 311,-129 80,-80 129,-190 129,-312 0,-91 -28,-175 -75,-245 -49,-73 -118,-130 -200,-163z"/>
  <path class="fil2" d="M2684 4477c9,-7 21,-5 28,3 7,9 5,21 -3,28 -30,24 -64,43 -101,56 -36,13 -74,20 -114,20 -40,0 -79,-7 -114,-20 -37,-13 -71,-32 -101,-56 -9,-7 -10,-19 -3,-28 6,-8 19,-10 27,-3 27,22 57,39 90,50 31,11 65,17 101,17 35,0 69,-6 101,-17 33,-11 63,-28 89,-50z"/>
  <path class="fil3" d="M2329 4085c60,20 55,35 52,89 -1,13 -3,25 -4,36 -2,12 -5,23 -8,33 -3,9 -6,18 -10,27 -4,8 -8,16 -12,23 -3,7 -7,13 -12,19 -4,5 -8,10 -13,14 -5,5 -11,9 -17,13 -6,3 -13,7 -22,10 -9,3 -22,5 -40,7 -17,2 -37,4 -58,4 -27,1 -55,1 -76,1 -19,-1 -34,-1 -46,-3 -10,-1 -18,-3 -27,-6l0 0c-9,-4 -18,-8 -26,-13 -8,-5 -15,-11 -21,-18 -6,-6 -12,-13 -16,-22 -5,-8 -9,-18 -12,-29 -4,-12 -7,-26 -9,-41 -3,-16 -5,-34 -7,-53 -1,-13 -2,-28 -3,-43 -6,-46 71,-50 98,-55 26,-5 62,-6 102,-7 40,0 84,0 117,2 32,2 53,7 70,12zm400 -12c32,-2 77,-2 117,-2 40,1 75,2 101,7 28,5 105,9 99,55 -2,15 -3,30 -4,43 -2,19 -4,37 -7,53 -2,15 -5,29 -9,41 -3,11 -7,21 -12,29 -4,9 -9,16 -15,22 -7,7 -14,13 -22,18 -8,5 -17,9 -25,13l0 0c-9,3 -18,5 -28,6 -12,2 -26,2 -45,3 -22,0 -49,0 -76,-1 -21,0 -42,-2 -59,-4 -18,-2 -30,-4 -40,-7 -9,-3 -16,-7 -22,-10 -6,-4 -11,-8 -16,-13 -5,-4 -10,-9 -14,-14 -4,-6 -8,-12 -12,-19 -4,-7 -8,-15 -11,-23 -4,-9 -8,-18 -11,-27 -3,-10 -5,-21 -7,-33 -2,-11 -3,-23 -4,-36 -4,-54 -9,-69 52,-89 16,-5 37,-10 70,-12zm-189 64c1,1 1,2 2,2 0,12 1,26 1,39 1,14 3,29 5,42 3,15 6,29 10,41 4,13 8,24 12,34 5,10 9,20 14,29 6,9 11,18 18,26 6,9 13,16 21,24 8,7 17,13 27,19 9,6 20,11 35,16 14,4 30,8 52,10 18,2 41,4 64,5 27,0 56,1 79,0 21,0 37,-1 52,-3 16,-2 29,-5 42,-10l0 0c13,-4 25,-11 38,-19 12,-8 23,-17 32,-27 11,-11 19,-22 26,-35 7,-12 13,-26 17,-42 5,-15 8,-31 11,-50 3,-17 5,-36 7,-56 4,-38 2,-69 28,-79 11,-4 23,-6 29,-18 6,-11 6,-31 6,-42 1,-11 1,-14 -7,-17 -8,-4 -25,-9 -65,-13 -41,-5 -105,-10 -177,-12 -72,-3 -151,-2 -220,2 -54,3 -101,9 -135,14 -62,9 -89,7 -150,-2 -33,-4 -77,-9 -126,-12 -68,-4 -148,-5 -220,-2 -72,2 -136,7 -177,12 -40,4 -57,9 -65,13 -8,3 -7,6 -7,17 0,11 1,31 7,42 6,12 17,14 29,18 25,10 24,41 27,79 2,20 5,39 7,56 3,19 7,35 11,50 5,16 10,30 17,42 7,13 16,24 26,35 10,10 21,19 33,27 12,8 25,15 38,19l0 0c12,5 25,8 42,10 14,2 30,3 52,3 22,1 51,0 79,0 23,-1 45,-3 63,-5 22,-2 39,-6 52,-10 15,-5 26,-10 36,-16 9,-6 18,-12 26,-19 8,-8 15,-15 22,-24 6,-8 12,-17 17,-26 5,-9 10,-19 14,-29 5,-10 9,-21 13,-34 3,-12 7,-26 9,-41 2,-13 4,-28 5,-42 1,-13 1,-27 1,-39 1,0 2,-1 2,-2 2,-16 22,-29 47,-29 24,0 45,13 46,29z"/>
  <path class="fil1" d="M2536 3914c0,24 -19,43 -42,43 -24,0 -43,-19 -43,-43l0 -370c0,-24 19,-43 43,-43 23,0 42,19 42,43l0 370z"/>
  <path class="fil1" d="M3580 4617c0,24 20,44 44,44 24,0 44,-20 44,-44l0 -651 223 0c22,0 41,-18 41,-40 0,-22 -19,-40 -41,-40l-534 0c-22,0 -41,18 -41,40 0,22 19,40 41,40l223 0 0 651z"/>
  <path class="fil1" d="M3882 4340c11,-111 86,-194 185,-194 114,0 173,91 182,194l-367 0zm413 243c9,-8 13,-18 13,-27 0,-20 -16,-37 -37,-37 -10,0 -18,5 -24,10 -42,39 -94,66 -164,66 -102,0 -188,-69 -201,-192l412 0c21,0 39,-17 39,-40 0,-151 -95,-288 -264,-288 -157,0 -272,132 -272,296l0 2c0,176 127,296 283,296 97,0 161,-34 215,-86z"/>
  <path class="fil1" d="M4670 4669c95,0 160,-38 214,-91 7,-7 11,-17 11,-27 0,-20 -18,-38 -38,-38 -11,0 -19,5 -25,11 -41,39 -93,69 -158,69 -119,0 -209,-98 -209,-221l0 -2c0,-122 88,-220 203,-220 69,0 115,30 156,68 6,5 16,10 27,10 22,0 41,-18 41,-41 0,-13 -7,-24 -13,-30 -51,-46 -115,-82 -209,-82 -167,0 -292,136 -292,297l0 2c0,160 125,295 292,295z"/>
  <path class="fil1" d="M4972 4618c0,24 18,43 42,43 25,0 42,-19 42,-43l0 -288c0,-107 73,-178 171,-178 100,0 157,66 157,171l0 295c0,24 19,43 43,43 23,0 42,-19 42,-43l0 -315c0,-136 -81,-228 -218,-228 -98,0 -157,49 -195,111l0 -296c0,-23 -18,-43 -43,-43 -23,0 -41,20 -41,43l0 728z"/>
  <path class="fil2" d="M5594 4617c0,24 19,44 43,44 24,0 44,-20 44,-44l0 -297 382 0c22,0 40,-17 40,-39 0,-22 -18,-40 -40,-40l-382 0 0 -275 432 0c22,0 39,-19 39,-41 0,-22 -17,-39 -39,-39l-476 0c-24,0 -43,19 -43,44l0 687z"/>
  <path class="fil2" d="M6231 4618c0,24 19,43 43,43 24,0 42,-20 42,-43l0 -193c0,-164 90,-247 200,-260 22,-3 37,-20 37,-43 0,-24 -16,-43 -41,-43 -72,0 -154,57 -196,152l0 -107c0,-24 -19,-43 -43,-43 -23,0 -42,20 -42,43l0 494z"/>
  <path class="fil2" d="M6607 3923c0,26 22,45 49,45 29,0 51,-19 51,-45l0 -14c0,-28 -22,-45 -51,-45 -27,0 -49,17 -49,45l0 14zm8 695c0,24 18,43 42,43 25,0 42,-19 42,-43l0 -494c0,-24 -18,-43 -43,-43 -23,0 -41,20 -41,43l0 494z"/>
  <path class="fil2" d="M6877 4340c11,-111 86,-194 185,-194 113,0 172,91 181,194l-366 0zm412 243c9,-8 14,-18 14,-27 0,-20 -17,-37 -38,-37 -10,0 -17,5 -24,10 -42,39 -93,66 -164,66 -101,0 -188,-69 -200,-192l411 0c21,0 40,-17 40,-40 0,-151 -96,-288 -264,-288 -157,0 -273,132 -273,296l0 2c0,176 128,296 284,296 97,0 161,-34 214,-86z"/>
  <path class="fil2" d="M7408 4618c0,24 18,43 43,43 24,0 41,-19 41,-43l0 -288c0,-107 73,-178 171,-178 100,0 157,66 157,171l0 295c0,24 19,43 43,43 23,0 42,-19 42,-43l0 -315c0,-136 -80,-228 -218,-228 -98,0 -157,49 -195,111l0 -62c0,-24 -18,-43 -42,-43 -24,0 -42,20 -42,43l0 494z"/>
  <path class="fil4" d="M8557 3890c0,-24 -19,-43 -43,-43 -24,0 -42,19 -42,43l0 306c-44,-64 -112,-121 -218,-121 -136,0 -271,110 -271,296l0 2c0,187 135,295 271,295 105,0 172,-59 218,-127l0 77c0,24 19,43 43,43 23,0 42,-19 42,-43l0 -728zm-287 261c105,0 205,88 205,219l0 2c0,131 -100,220 -205,220 -107,0 -201,-86 -201,-220l0 -2c0,-138 91,-219 201,-219zm394 435l0 22c0,30 22,53 53,53 30,0 52,-23 52,-53l0 -22c0,-29 -22,-51 -52,-51 -31,0 -53,22 -53,51zm699 -462c0,-24 -19,-43 -42,-43 -24,0 -41,19 -41,43l0 289c0,106 -74,178 -171,178 -100,0 -157,-66 -157,-172l0 -295c0,-24 -20,-43 -43,-43 -24,0 -42,19 -42,43l0 316c0,135 80,228 218,228 98,0 156,-50 195,-111l0 61c0,24 18,43 41,43 25,0 42,-20 42,-43l0 -494zm309 543c113,0 202,-63 202,-171l0 -2c0,-102 -94,-136 -182,-163 -76,-23 -147,-44 -147,-98l0 -2c0,-47 43,-82 110,-82 49,0 100,16 149,44 4,2 11,4 18,4 21,0 38,-17 38,-36 0,-17 -10,-29 -21,-36 -55,-29 -121,-48 -182,-48 -112,0 -193,65 -193,163l0 2c0,105 99,135 188,161 75,21 142,43 142,100l0 2c0,55 -50,90 -118,90 -61,0 -122,-21 -180,-60 -6,-5 -13,-7 -21,-7 -21,0 -38,17 -38,36 0,15 8,26 16,31 61,44 144,72 219,72z"/>
  <circle class="fil3" cx="2269" cy="4228" r="40"/>
  <circle class="fil3" cx="2719" cy="4228" r="40"/>
 </g>
</svg>
